<svg xmlns="http://www.w3.org/2000/svg" viewBox="0 0 1600 900" role="img" aria-labelledby="title desc">
  <title id="title">Sarcina sanatoasa</title>
  <desc id="desc">Generic article image for healthy pregnancy guidance.</desc>
  <defs>
    <linearGradient id="bg" x1="0" y1="0" x2="1" y2="1">
      <stop offset="0%" stop-color="#f7fbf9"/>
      <stop offset="100%" stop-color="#b7ddd8"/>
    </linearGradient>
  </defs>
  <rect width="1600" height="900" fill="url(#bg)"/>
  <circle cx="500" cy="450" r="170" fill="#d5ede8"/>
  <path d="M470 300c64 0 118 51 118 114 0 23-7 44-17 62 61 18 110 72 110 141H350c0-117 83-215 192-238-13-23-20-50-20-79 0-57-23-100-52-100z" fill="#ffffff" opacity="0.96"/>
  <rect x="860" y="280" width="420" height="34" rx="17" fill="#78c7bf"/>
  <rect x="860" y="360" width="340" height="24" rx="12" fill="#9ed7d0"/>
  <rect x="860" y="420" width="300" height="24" rx="12" fill="#b9e1db"/>
  <rect x="860" y="540" width="150" height="150" rx="30" fill="#ffffff" opacity="0.94"/>
  <path d="M935 575h20v40h40v20h-40v40h-20v-40h-40v-20h40z" fill="#49a7a1"/>
  <text x="800" y="800" text-anchor="middle" font-family="Poppins, Arial, sans-serif" font-size="74" font-weight="700" fill="#1f7f83">Sarcina sanatoasa</text>
</svg>